<svg width="365" height="145" viewBox="0 0 365 145" id="signature" fill="none" xmlns="http://www.w3.org/2000/svg">
<style>
svg#signature {
	stroke-dasharray: 1935;
	stroke-dashoffset: 1935;
	animation: sign 4s ease;
	animation-fill-mode: forwards;
	animation-iteration-count: infinite;
}

@keyframes sign {
	to {
		stroke-dashoffset: 0;
	}
	
}
</style>
<path id="signPath" d="M3 64C9.61291 51.4355 15.8217 39.5343 23.4444 27.5556C25.4274 24.4394 28.0782 23.6497 30.9444 21.5C35.2455 18.2742 36.2854 29.2804 36.7778 32.3334C41.5513 61.929 36.9387 92.1398 28.7222 120.5C26.1522 129.371 22.4887 138.284 14 142.778C10.529 144.615 6.27701 142.549 4 140.5C-2.48293 134.665 5.85098 124.264 10 120C16.9499 112.857 25.175 105.73 34.0556 101.056C44.5626 95.5256 55.8873 92.8994 67.2778 90C81.7399 86.3188 93.8348 78.2338 104.667 68.1112C115.596 57.8972 132.631 42.1944 134.944 26C135.331 23.292 136.06 17.0479 133.778 15.2223C132.843 14.4747 129.932 15 128.778 15C118.924 15 109.938 24.454 103.222 30.7223C87.3995 45.4902 82 66.933 82 88.2223C82 102.766 88.464 120.765 99 131C109.692 141.387 129.867 130.862 141.111 126.444C150.46 122.772 161.224 115.173 164.778 105.222C166.318 100.909 167.59 93.0912 163.722 89.5C157.273 83.5115 144.346 85.018 138 89.7778C126.969 98.0507 125 106.096 125 119.5C125 128.399 137.972 128 144.222 128C164.295 128 166.485 101.024 170.778 86C172.326 80.5807 171.746 83.4613 169.778 87.4445C165.891 95.3096 162.738 103.013 162.056 111.889C161.906 113.836 160.791 130.87 163 131C187.19 132.423 192.375 106.479 199 88.4445C205.584 70.5227 208.035 51.0986 211.5 32.3889C212.682 26.0043 212.343 18.5256 212 12C211.837 8.9046 209.774 4.00004 206.5 4.00004C196.182 4.00004 197 26.2279 197 33.2223C197 49.403 198.12 66.3834 200.556 82.3889C202.815 97.2345 203 111.524 203 126.5C203 132.322 201.932 127.111 201.5 124C200.203 114.661 200.836 105.362 199.222 96C198.433 91.4242 197.85 87.7561 198.778 83.2223C199.724 78.5956 206.026 75.1584 209.944 72.6112C219.871 66.1591 220.889 79.6768 221 86.7778C221.141 95.7731 219.183 99.8225 210.444 103C207.867 103.937 198.508 106 206 106C212.467 106 225.468 105.2 226.944 114.056C228.152 121.303 227.657 134.578 237.167 133.944C243.735 133.507 247.08 131.252 251.611 126.889C259.363 119.424 266.728 111.671 272 102.222C281.252 85.6382 283.639 68.2673 285.111 49.5C285.806 40.6422 288 32.0299 288 23.0556C288 19.3539 289.167 13.5252 287.556 10C285.227 4.9061 280.931 -0.682568 275.056 3.61115C263.458 12.0866 266 34.3076 266 46.3334C266 65.7499 267.737 87.0573 272.444 105.889C273.266 109.177 277.073 121.782 281 122C285.996 122.278 288.767 120.344 292.167 116.944C301.555 107.556 302.256 94.7385 308.5 83.5C311.53 78.0455 310.977 71.3685 314.5 65.8889C315.251 64.7208 321.474 55.1725 323.222 60.2223C325.117 65.6948 325 71.2054 325 76.9445C325 83.3102 316.312 87.7716 310.778 88.7778C303.502 90.1007 296.193 91 288.778 91C283.343 91 275.658 89.4662 271.111 93.4445C270.391 94.0746 268.911 96.6659 270.722 96.9445C278.661 98.1659 284.921 98.2847 292.444 101.778C300.363 105.454 305.409 108.291 308.056 117.556C309.207 121.587 310.938 128.063 315.444 129.222C320.21 130.448 329.769 130.603 332.5 125.444C334.822 121.059 338.108 117.421 339.222 112.222C341.604 101.108 345.209 89.8976 345.944 78.5C346.155 75.2433 346.093 71.8008 347.556 68.7778C349.074 65.6398 346.681 75.7038 345.944 79.1112C343.764 89.1938 341.15 100.078 341 110.444C340.959 113.291 339.308 123.57 341.667 125.5C346.842 129.734 357.083 127.91 363 127" stroke="black" stroke-width="3" stroke-linecap="round"/>
</svg>
