<svg id="signature" width="316" height="411" viewBox="0 0 316 411" fill="none" xmlns="http://www.w3.org/2000/svg">
    <style>
        svg#signature {
            stroke-dasharray: 3222;
            stroke-dashoffset: 3222;
            animation: sign 4s ease;
            animation-fill-mode: forwards;
            animation-iteration-count: infinite;
        }

        @keyframes sign {
            to {
                stroke-dashoffset: 0;
            }
            
        }
        /*
            stroke-dasharray: 3222;
            stroke-dashoffset: 3222;
            Burada tanımlı uzunluk değerini elde etmek için
            svg nin içinde path'e bir id verilir. 
            svg chrome da açılır ve console ekranında 
            o id verilen path seçilerek getTotalLength() ile alınır.
            let signPath = document.getElementById('signPath');
            signPath.getTotalLength();
        */
    </style>
    <path id="signpath"  stroke="black" stroke-width="3" stroke-linecap="round" d="M18 120C18 110.767 17.9503 101.685 19 92.5C19.7559 85.8856 21.2825 79.4142 22 72.7778C22.4901 68.244 23.3755 60.7051 26 57C27.5139 54.8627 28.8934 45.9727 33.5 49.5556C38.718 53.614 41.5754 63.7475 42.7778 70C44.7842 80.4335 49.1179 90.1437 49.9444 100.889C50.4872 107.944 49.9514 115.089 48.7778 122C45.0813 143.768 35.9469 164.759 28.5 185.444C26.5511 190.858 22.8819 198.661 19 203C17.1725 205.042 14.989 208 12 208C6.58938 208 6.49846 207.384 4.77777 202.222C2.32441 194.862 0.702722 186.918 3 179.222C7.75539 163.292 24.0482 149.035 40.2222 146.222C51.8487 144.2 65.1975 146 76.9444 146C87.2392 146 99.8744 148.183 109.056 142.444C118.833 136.334 129.391 129.228 136 119.556C142.096 110.635 147.593 100.972 152.667 91.4445C157.51 82.3481 164.12 72.362 167.389 62.5556C170.159 54.2467 171 46.911 171 38.2222C171 33.5667 170.252 29.3772 164.556 33.2222C130.013 56.5387 110.998 96.4852 110 137.889C109.597 154.63 109.062 171.517 112.444 187.944C113.364 192.409 112.948 201 119.056 201C136.627 201 150.43 174.942 157 161.333C159.908 155.31 160.368 146.624 160 140C159.577 132.386 141.568 145.587 141 146C134.904 150.434 131.618 159.637 131.056 166.944C130.598 172.887 127.648 182.835 130.222 188.556C131.975 192.451 138.141 191.54 140.5 189C149.353 179.466 156.118 168.407 162.778 157.222C170.232 144.704 172.766 134.543 175.389 120.556C175.545 119.724 176.017 117.229 175.833 118.056C174.521 123.963 172.321 129.741 170.5 135.5C165.976 149.807 160.912 163.02 159 178C158.52 181.762 157.256 193.052 158 189.333C159.338 182.644 165.401 175.661 168.667 169.722C192.253 126.838 217.128 84.2129 245.889 44.6667C247.03 43.0973 246.784 46.8818 246.778 46.9444C246.235 52.5037 243.672 58.0134 241.722 63.1667C234.136 83.2149 223.282 100.681 212.778 119.222C205.985 131.213 200.473 143.67 194 155.778C191.043 161.308 187.971 165.688 187 172C186.53 175.057 185.79 178.606 184.5 181.444C184.335 181.807 183.884 183.091 184.056 181.722C184.782 175.913 188.161 170.127 190.889 165.111C198.333 151.421 210.12 134.776 223.222 125.556C226.776 123.055 226.547 125.254 225.778 129.333C224.42 136.53 221.935 143.669 216.556 148.833C213.062 152.187 208.349 153.973 204.333 156.611C199.452 159.819 182.603 164 188.444 164C191.948 164 195.136 161.155 198.778 161C206.344 160.678 210.274 165.721 214.222 171.722C215.197 173.204 220.554 188.659 223.611 186.778C227.316 184.498 230.37 177.703 232.611 174.389C237.893 166.578 243.645 159.094 248.833 151.222C256.336 139.839 263.248 127.891 268.722 115.389C275.337 100.282 278.991 84.1534 284.556 68.6667C290.226 52.8865 296.759 37.4152 301.556 21.3333C301.858 20.3185 303.454 15.0364 302.778 19.6667C300.86 32.7985 295.53 45.5796 291 57.9444C282.639 80.7668 274.054 102.713 263.889 124.778C259.556 134.184 254.192 143.312 251.444 153.333C251.167 154.347 246.88 168.263 248.611 161.722C250.844 153.285 256.434 145.566 262.556 139.444C264.57 137.43 283.723 123.114 283.944 124.778C285.039 132.983 285.479 158 273 158C265.147 158 274.671 156.849 273.833 156.5C269.611 154.741 264.046 155 259.5 155C253.342 155 260.825 155.598 263.556 157C268.735 159.66 274.432 161.812 276.5 167.556C278.976 174.433 279.613 179.643 280 187C280.135 189.564 282.249 185.959 282.556 185.389C285.653 179.636 288.736 173.892 292 168.222C296.167 160.986 299.069 152.593 304.056 145.944C306.264 143 308.269 139.801 310 136.556C310.698 135.247 314.055 129.116 314 130.444C313.097 152.108 302 171.163 302 193C302 200.117 303.488 208.404 302.778 215.333C302.694 216.151 301.069 215.368 300.333 215C291.721 210.694 296.529 212.526 285 207.444C248.055 191.16 208.598 185.438 168.944 179C128.756 172.475 86.243 163.624 45.2222 165.222C42.425 165.331 36.8176 165.183 37.2778 167.944C37.932 171.87 45.1543 166.541 48.8889 165.167C79.6882 153.83 111.442 144.452 139.667 127.222C167.009 110.531 191.129 88.7326 215 67.5556C227.036 56.8783 239.78 46.2273 250.444 34.1111C256.69 27.0154 259.749 19.3154 262.556 10.4444C262.927 9.27058 265.889 3.93489 265.889 2.5C265.889 0.794188 262.75 4.00415 261.556 5.22223C252.982 13.9673 247.253 25.6853 241.444 36.2778C210.772 92.2091 181.549 149.841 158.667 209.444C138.902 260.926 128.447 317.314 134.222 372.389C135.39 383.523 136.45 396.341 140.389 407C141.432 409.824 144.516 409 147 409"/>
</svg>